# xmcd
#
# Track frame offsets: 
#        150
#        25906
#        46480
#        62067
#        83777
#        105926
#        122928
#        137013
#        154144
#        168661
#        188169
#        207589
#        221242
#        238059
#        251176
#        261776
#        272954
#        287005
#        294927
#
# Disc length: 4199 seconds
#
# Revision: 0
# Processed by: cddbd v1.5.2PL0 Copyright (c) Steve Scherf et al.
# Submitted via: ExactAudioCopyFreeDBPlugin 1.0
#
DISCID=2a106513
DTITLE=Michael Ende  - Der satanarchäolügenialkohöllische Wunschpunsch
DTITLE=CD1
DYEAR=2019
DGENRE=Hörbuch
TTITLE0=Der satanarchäolügenialkohöllische Wunschpunsch 101
TTITLE1=Der satanarchäolügenialkohöllische Wunschpunsch 102
TTITLE2=Der satanarchäolügenialkohöllische Wunschpunsch103
TTITLE3=Der satanarchäolügenialkohöllische Wunschpunsch 104
TTITLE4=Der satanarchäolügenialkohöllische Wunschpunsch 105
TTITLE5=Der satanarchäolügenialkohöllische Wunschpunsch 106
TTITLE6=Der satanarchäolügenialkohöllische Wunschpunsch 107
TTITLE7=Der satanarchäolügenialkohöllische Wunschpunsch 108
TTITLE8=Der satanarchäolügenialkohöllische Wunschpunsch 109
TTITLE9=Der satanarchäolügenialkohöllische Wunschpunsch 110
TTITLE10=Der satanarchäolügenialkohöllische Wunschpunsch 111
TTITLE11=Der satanarchäolügenialkohöllische Wunschpunsch 112
TTITLE12=Der satanarchäolügenialkohöllische Wunschpunsch 113
TTITLE13=Der satanarchäolügenialkohöllische Wunschpunsch 114
TTITLE14=Der satanarchäolügenialkohöllische Wunschpunsch 115
TTITLE15=Der satanarchäolügenialkohöllische Wunschpunsch 116
TTITLE16=Der satanarchäolügenialkohöllische Wunschpunsch 117
TTITLE17=Der satanarchäolügenialkohöllische Wunschpunsch 118
TTITLE18=Der satanarchäolügenialkohöllische Wunschpunsch 119
EXTD=
EXTT0=
EXTT1=
EXTT2=
EXTT3=
EXTT4=
EXTT5=
EXTT6=
EXTT7=
EXTT8=
EXTT9=
EXTT10=
EXTT11=
EXTT12=
EXTT13=
EXTT14=
EXTT15=
EXTT16=
EXTT17=
EXTT18=
PLAYORDER=
